<svg version="1.1" id="Layer_1" xmlns="http://www.w3.org/2000/svg" x="0" y="0" viewBox="0 0 1000 1030" style="enable-background:new 0 0 1000 1030" xml:space="preserve"><style>.st0{fill:#752d1e}</style><path class="st0" d="M314.3 5.3h371.4c39.9 0 72.2 32.3 72.2 72.2v371.4c0 39.9-32.3 72.2-72.2 72.2H314.3c-39.9 0-72.2-32.3-72.2-72.2V77.5c0-39.9 32.3-72.2 72.2-72.2z"/><path d="M259 74.7c0-31.6 21-52.6 52.6-52.6h376.8c31.6 0 52.6 21 52.6 52.6v67.4c0 73.7-26.3 116.8-72.6 116.8-80 0-176.8-100-257.9-100-62.1 0-115.8 41-151.5 130.5V74.7zm482.1 376.9c0 31.6-21 52.6-52.6 52.6H311.6c-31.6 0-52.6-21-52.6-52.6v-67.4c0-73.7 26.3-116.8 72.6-116.8 80 0 176.8 100 257.9 100 62.1 0 115.8-41 151.6-130.5v214.7zM310.5 0c-44.2 0-73.7 29.5-73.7 73.7v379c0 44.2 29.5 73.7 73.7 73.7h378.9c44.2 0 73.7-29.5 73.7-73.7v-379c0-44.2-29.5-73.7-73.7-73.7H310.5z" style="fill:#d99d2a"/><path class="st0" d="M51.5 716.6c-13.3.2-26.5 1.4-39.6 3.6l-8.7 25.4 8.5 10.4C3.4 780.4 0 791.3 0 804.5c0 23 12.1 34.8 38.9 34.8 12.3 0 36-2.7 47.4-7.5 10.9-19.6 18.4-35.3 18.4-48.6-.1-28.2-17.5-66.6-53.2-66.6zM45.2 797c-14.3 0-19.1-5.6-19.1-14.5 0-5.6 3.1-18.1 6.3-27.8 5.6-.5 10.9-1 14.7-1 17.2 0 28.5 13.5 32.6 39.2-11.3 2.7-22.9 4.1-34.5 4.1zm280.9-64.7 19.6-27.5-3.1-8.2-25.6-16.4-20.5 30.7 25.6 16.4 4 5zm63.2 16.7c6.9 14.3 12.4 29.3 16.4 44.7-8.7 2.2-22.2 3.6-38.9 3.6h-9.2c-15.2 0-22-7-22-21.3v-21.3l-20.5 2.2-2.4 20.5c-1.5 12.6-11.8 19.8-32.4 19.8h-15.1c-18.1 0-23.9-8.5-24.4-21l-1.2-30c-1-18.4-5.3-35-13.3-56.8l-32.9 23.2c9.7 22 17.1 50 21.3 77.6-12.1 4.3-28.5 7-43.7 7-18.4 0-23.9-7.3-23.9-19.3 0-2.7.2-12.8.7-19.6l-20.5 4.1c-1 9.9-1.9 26.3-1.9 40.1 0 25.6 12.3 37 39.6 37 12.8 0 32.1-1.9 44.5-8.7 3.1-3.1 6.8-10.6 9.4-16.9 4.8 17.2 15.7 25.6 40.1 25.6h19c21 0 31.7-7.7 39.6-22 4.6 15.5 16.2 22 37.9 22h10.9c16.4 0 34.1-1.7 44.5-5.6 15.2-20.5 22.7-38.4 22.7-47.1 0-13.8-5.1-40.1-13.3-59.7l-31 21.9zm-52.4 119.1-1.9 30.7 66.9-1.2 7.3 2.4 3.1-29.5-8.4-4.8-67 2.4zm128.8-25.7 3.4 1.7 27.3-8.7V686.5L457 699.3l8.7 143.1zm45.9-204.7c-1.1.5-2.4.8-3.6.7-17.4 3.4-38.9-8.9-55.6-8.9-11.4 0-19.3 5.3-24.4 21.3l-7.5 23.2 14.5 8 3.1-8.7c3.4-8.7 6-12.3 13-12.3 13.5 0 30.4 8.5 46.9 8.5 11.4 0 16.4-1.7 22.2-5.3l12.3-33.6-15.2-8.2-5.7 15.3zm304 75.9 19.6-27.5-3.1-8.2-25.6-16.4-20.6 30.5 25.6 16.4 4.1 5.2zM800.4 749c6.9 14.3 12.4 29.3 16.4 44.7-8.7 2.2-22.2 3.6-38.9 3.6h-9.4c-38.9 0-34.1-58.2-71-76.1l-23-11.4 81.4-30.9 4.1-29-9.9-6L646 686.6l-9.2 46.2 31.2 14c15 7.3 25.6 15 35.8 41.8-20.5 5.8-57.3 8.7-85.1 8.7-38.7 0-49.5-6-49.5-22.7 0-8.5 1-18.1 2.9-32.6l-23.2 2.2c-3.6 18.1-6.5 34.1-6.5 45.9 0 33.6 14.7 49.5 69.1 49.5 28.5 0 64.8-4.1 88.9-11.6l10.9-25.6c16.2 30.2 34.8 37.2 55.1 37.2h11.1c16.4 0 34.1-1.7 44.5-5.6 15.2-20.5 22.7-38.4 22.7-47.1 0-13.8-5.1-40.1-13.3-59.7l-31 21.8zm133.5 110.6-20.5 30.9 25.4 16.2 4.1 5.1 19.8-27.5-3.1-8.2-25.7-16.5zm52.8-132.4L955.8 749c6.9 14.3 12.4 29.3 16.4 44.7-8.7 2.2-22.2 3.6-38.9 3.6h-6.2c-15.7 0-23.4-8.5-23.4-28.3 0-11.3.5-58.2.5-69.8 0-16.4-1.5-32.1-8-59.9l-34.8 18.6c6.5 35.3 9.4 73.2 11.8 130.7 1.7 38.9 18.4 51 51 51h8.6c16.4 0 34.1-1.7 44.5-5.6 15.2-20.6 22.7-38.5 22.7-47.2 0-13.7-5.1-40-13.3-59.6zm-904 301.2H60.1l-4.4-18.7-15.8-.4-13.6.5-3.8 16.3-.6 2.2H0L29.4 938H56l26.7 90.4zm-30.6-35.1-9.2-35h-1.5l-10.7 35 10.6.1 10.8-.1zm76.5 10.5.9 24.6h-22.2l1.2-24.6-.1-4.9-28.9-60.8h23.4l2.1 6.6 13.5 31.9h1.5l15.1-31.2 2.8-7.3h22.8l-31.8 60-.3 5.7zm108.1 24.6h-22.6l-4.4-18.7-15.9-.4-13.6.5-3.8 16.3-.6 2.2H154l29.4-90.3H210l26.7 90.4zm-30.6-35.1-9.1-35h-1.5l-10.7 35 10.6.1 10.7-.1zm121.6 6.7.9 28.4h-24l-32.9-56.8h-1.3l-.1 25.1.7 31.7h-20l1.1-26.6L251 938h24l32.8 56.7h1.5l-.6-56 20.4-1.2-1.4 62.5zm60.4-62.5c26.2 0 40.9 15 40.9 42.3 0 32-16.5 49.8-46.3 49.8-9.6 0-20.5-.4-32.4-1.1l1.1-26.8-1.1-63.5 37.8-.7zm17.7 47.5c0-21.7-5.9-30.1-19.6-30.1-4.6 0-9.3.2-13.9.5l-.7 44.1.2 12.3c6.2.6 11.6 1 14.9 1 12.4 0 19.1-8.6 19.1-27.8zm61.6-11h15l14.6-.4 1.2 1.6-1.3 16.3-29.9-.4-.1 8.3.3 11.7H482l23-.7 1.1 1.6-1.4 16.3h-59.1l1.1-26.8-1.1-63.5h60l1.1 1.6-1.5 16.2-22-.6h-15.6l-.2 18.8zm132 25.5.8 28.9H578l1.1-26.8-.1-9.3-18-.2-17.2.4v7.1l1 28.9h-22.4l1.1-26.8-1.1-63.5H545l-.6 36.2 17.8.2 16.3-.2-.5-36.2h22.6l-1.2 61.3zm113.2 3.1c0 18.2-14.5 26.7-42.8 26.7-7.9 0-16.8-.4-26.6-.9l1.1-26.8-1.1-63.5 35-.1c19.3 0 30.5 7.9 30.5 22.7 0 9.6-4.9 17.2-13.7 21.1 12 3 17.6 9.5 17.6 20.8zm-22.4-.9c0-6.1-3.7-9.5-11.2-11.2l-15 .3-.1 8.8.4 14.3c4.4.3 7.6.5 9.6.5 10.2-.1 16.3-4.6 16.3-12.7zm-20.9-48.6h-4.6l-.4 22.9 12.3.4c6.3-1.8 9.5-5.6 9.5-12.7.1-7.6-4.4-10.6-16.8-10.6zm135.2 75.3h-22.6l-4.4-18.7-15.8-.4-13.7.5-3.8 16.3-.6 2.2h-21.8l29.4-90.3h26.6l26.7 90.4zm-30.7-35.1-9.2-35h-1.5l-10.7 35 10.6.1 10.8-.1zm118.5 6.7.9 28.4h-24l-32.9-56.8H835l-.1 25.1.7 31.7h-20l1.1-26.6-1.1-63.8h24l32.8 56.7h1.5l-.6-56 20.4-1.2-1.4 62.5zm43.2-21.5 22.4-31.5 5.1-9h23.8l-30.1 42.6c9.8 14.3 20.7 28.5 32.8 43.2l-.2 2.4c-7.3 1.6-14.6 2.9-22 3.8l-2.6-1.3c-10.6-15.5-21.6-32.6-29.4-45l-.2 15.9.8 28.9h-22.1l1.1-26.8-1.1-63.5h22.4l-.7 40.3z"/></svg>