<?xml version="1.0" encoding="utf-8"?>
<!-- Generator: Adobe Illustrator 24.0.0, SVG Export Plug-In . SVG Version: 6.00 Build 0)  -->
<svg version="1.1" id="Layer_1" xmlns="http://www.w3.org/2000/svg" xmlns:xlink="http://www.w3.org/1999/xlink" x="0px" y="0px"
	 viewBox="0 0 1000 1030" style="enable-background:new 0 0 1000 1030;" xml:space="preserve">
<style type="text/css">
	.st0{fill:#752D1E;}
	.st1{fill:#D99D2A;}
</style>
<title>Artboard 3</title>
<g>
	<path class="st0" d="M314.3,5.3h371.4c39.9,0,72.2,32.3,72.2,72.2v371.4c0,39.9-32.3,72.2-72.2,72.2H314.3
		c-39.9,0-72.2-32.3-72.2-72.2V77.5C242.1,37.6,274.4,5.3,314.3,5.3z"/>
	<path class="st1" d="M259,74.7c0-31.6,21-52.6,52.6-52.6h376.8c31.6,0,52.6,21,52.6,52.6v67.4c0,73.7-26.3,116.8-72.6,116.8
		c-80,0-176.8-100-257.9-100c-62.1,0-115.8,41-151.5,130.5V74.7z M741.1,451.6c0,31.6-21,52.6-52.6,52.6H311.6
		c-31.6,0-52.6-21-52.6-52.6v-67.4c0-73.7,26.3-116.8,72.6-116.8c80,0,176.8,100,257.9,100c62.1,0,115.8-41,151.6-130.5L741.1,451.6
		z M310.5,0c-44.2,0-73.7,29.5-73.7,73.7v379c0,44.2,29.5,73.7,73.7,73.7h378.9c44.2,0,73.7-29.5,73.7-73.7v-379
		c0-44.2-29.5-73.7-73.7-73.7H310.5z"/>
</g>
<path class="st0" d="M51.5,716.6c-13.3,0.2-26.5,1.4-39.6,3.6l-8.7,25.4l8.5,10.4C3.4,780.4,0,791.3,0,804.5
	c0,23,12.1,34.8,38.9,34.8c12.3,0,36-2.7,47.4-7.5c10.9-19.6,18.4-35.3,18.4-48.6C104.6,755,87.2,716.6,51.5,716.6z M45.2,797
	c-14.3,0-19.1-5.6-19.1-14.5c0-5.6,3.1-18.1,6.3-27.8c5.6-0.5,10.9-1,14.7-1c17.2,0,28.5,13.5,32.6,39.2
	C68.4,795.6,56.8,797,45.2,797z M326.1,732.3l19.6-27.5l-3.1-8.2l-25.6-16.4l-20.5,30.7l25.6,16.4L326.1,732.3z M389.3,749
	c6.9,14.3,12.4,29.3,16.4,44.7c-8.7,2.2-22.2,3.6-38.9,3.6h-9.2c-15.2,0-22-7-22-21.3v-21.3l-20.5,2.2l-2.4,20.5
	c-1.5,12.6-11.8,19.8-32.4,19.8h-15.1c-18.1,0-23.9-8.5-24.4-21l-1.2-30c-1-18.4-5.3-35-13.3-56.8l-32.9,23.2
	c9.7,22,17.1,50,21.3,77.6c-12.1,4.3-28.5,7-43.7,7c-18.4,0-23.9-7.3-23.9-19.3c0-2.7,0.2-12.8,0.7-19.6l-20.5,4.1
	c-1,9.9-1.9,26.3-1.9,40.1c0,25.6,12.3,37,39.6,37c12.8,0,32.1-1.9,44.5-8.7c3.1-3.1,6.8-10.6,9.4-16.9
	c4.8,17.2,15.7,25.6,40.1,25.6h19c21,0,31.7-7.7,39.6-22c4.6,15.5,16.2,22,37.9,22h10.9c16.4,0,34.1-1.7,44.5-5.6
	c15.2-20.5,22.7-38.4,22.7-47.1c0-13.8-5.1-40.1-13.3-59.7L389.3,749z M336.9,868.1l-1.9,30.7l66.9-1.2l7.3,2.4l3.1-29.5l-8.4-4.8
	L336.9,868.1z M465.7,842.4l3.4,1.7l27.3-8.7V686.5L457,699.3L465.7,842.4z M511.6,637.7c-1.1,0.5-2.4,0.8-3.6,0.7
	c-17.4,3.4-38.9-8.9-55.6-8.9c-11.4,0-19.3,5.3-24.4,21.3l-7.5,23.2l14.5,8l3.1-8.7c3.4-8.7,6-12.3,13-12.3
	c13.5,0,30.4,8.5,46.9,8.5c11.4,0,16.4-1.7,22.2-5.3l12.3-33.6l-15.2-8.2L511.6,637.7z M815.6,713.6l19.6-27.5l-3.1-8.2l-25.6-16.4
	L785.9,692l25.6,16.4L815.6,713.6z M800.4,749c6.9,14.3,12.4,29.3,16.4,44.7c-8.7,2.2-22.2,3.6-38.9,3.6h-9.4
	c-38.9,0-34.1-58.2-71-76.1l-23-11.4l81.4-30.9l4.1-29l-9.9-6L646,686.6l-9.2,46.2l31.2,14c15,7.3,25.6,15,35.8,41.8
	c-20.5,5.8-57.3,8.7-85.1,8.7c-38.7,0-49.5-6-49.5-22.7c0-8.5,1-18.1,2.9-32.6l-23.2,2.2c-3.6,18.1-6.5,34.1-6.5,45.9
	c0,33.6,14.7,49.5,69.1,49.5c28.5,0,64.8-4.1,88.9-11.6l10.9-25.6c16.2,30.2,34.8,37.2,55.1,37.2h11.1c16.4,0,34.1-1.7,44.5-5.6
	c15.2-20.5,22.7-38.4,22.7-47.1c0-13.8-5.1-40.1-13.3-59.7L800.4,749z M933.9,859.6l-20.5,30.9l25.4,16.2l4.1,5.1l19.8-27.5
	l-3.1-8.2L933.9,859.6z M986.7,727.2L955.8,749c6.9,14.3,12.4,29.3,16.4,44.7c-8.7,2.2-22.2,3.6-38.9,3.6h-6.2
	c-15.7,0-23.4-8.5-23.4-28.3c0-11.3,0.5-58.2,0.5-69.8c0-16.4-1.5-32.1-8-59.9l-34.8,18.6c6.5,35.3,9.4,73.2,11.8,130.7
	c1.7,38.9,18.4,51,51,51h8.6c16.4,0,34.1-1.7,44.5-5.6c15.2-20.6,22.7-38.5,22.7-47.2C1000,773.1,994.9,746.8,986.7,727.2z
	 M82.7,1028.4H60.1l-4.4-18.7l-15.8-0.4l-13.6,0.5l-3.8,16.3l-0.6,2.2H0l29.4-90.3H56L82.7,1028.4z M52.1,993.3l-9.2-35h-1.5
	l-10.7,35l10.6,0.1L52.1,993.3z M128.6,1003.8l0.9,24.6h-22.2l1.2-24.6l-0.1-4.9l-28.9-60.8h23.4l2.1,6.6l13.5,31.9h1.5l15.1-31.2
	l2.8-7.3h22.8l-31.8,60L128.6,1003.8z M236.7,1028.4h-22.6l-4.4-18.7l-15.9-0.4l-13.6,0.5l-3.8,16.3l-0.6,2.2H154l29.4-90.3H210
	L236.7,1028.4z M206.1,993.3l-9.1-35h-1.5l-10.7,35l10.6,0.1L206.1,993.3z M327.7,1000l0.9,28.4h-24l-32.9-56.8h-1.3l-0.1,25.1
	l0.7,31.7h-20l1.1-26.6l-1.1-63.8h24l32.8,56.7h1.5l-0.6-56l20.4-1.2L327.7,1000z M388.1,937.5c26.2,0,40.9,15,40.9,42.3
	c0,32-16.5,49.8-46.3,49.8c-9.6,0-20.5-0.4-32.4-1.1l1.1-26.8l-1.1-63.5L388.1,937.5z M405.8,985c0-21.7-5.9-30.1-19.6-30.1
	c-4.6,0-9.3,0.2-13.9,0.5l-0.7,44.1l0.2,12.3c6.2,0.6,11.6,1,14.9,1C399.1,1012.8,405.8,1004.2,405.8,985z M467.4,974h15l14.6-0.4
	l1.2,1.6l-1.3,16.3l-29.9-0.4l-0.1,8.3l0.3,11.7h14.8l23-0.7l1.1,1.6l-1.4,16.3h-59.1l1.1-26.8l-1.1-63.5h60l1.1,1.6l-1.5,16.2
	l-22-0.6h-15.6L467.4,974z M599.4,999.5l0.8,28.9h-22.2l1.1-26.8l-0.1-9.3l-18-0.2l-17.2,0.4v7.1l1,28.9h-22.4l1.1-26.8l-1.1-63.5
	H545l-0.6,36.2l17.8,0.2l16.3-0.2l-0.5-36.2h22.6L599.4,999.5z M712.6,1002.6c0,18.2-14.5,26.7-42.8,26.7c-7.9,0-16.8-0.4-26.6-0.9
	l1.1-26.8l-1.1-63.5l35-0.1c19.3,0,30.5,7.9,30.5,22.7c0,9.6-4.9,17.2-13.7,21.1C707,984.8,712.6,991.3,712.6,1002.6z M690.2,1001.7
	c0-6.1-3.7-9.5-11.2-11.2l-15,0.3l-0.1,8.8l0.4,14.3c4.4,0.3,7.6,0.5,9.6,0.5C684.1,1014.3,690.2,1009.8,690.2,1001.7z M669.3,953.1
	h-4.6l-0.4,22.9l12.3,0.4c6.3-1.8,9.5-5.6,9.5-12.7C686.2,956.1,681.7,953.1,669.3,953.1z M804.5,1028.4h-22.6l-4.4-18.7l-15.8-0.4
	l-13.7,0.5l-3.8,16.3l-0.6,2.2h-21.8l29.4-90.3h26.6L804.5,1028.4z M773.8,993.3l-9.2-35h-1.5l-10.7,35l10.6,0.1L773.8,993.3z
	 M892.3,1000l0.9,28.4h-24l-32.9-56.8h-1.3l-0.1,25.1l0.7,31.7h-20l1.1-26.6l-1.1-63.8h24l32.8,56.7h1.5l-0.6-56l20.4-1.2
	L892.3,1000z M935.5,978.5l22.4-31.5l5.1-9h23.8l-30.1,42.6c9.8,14.3,20.7,28.5,32.8,43.2l-0.2,2.4c-7.3,1.6-14.6,2.9-22,3.8
	l-2.6-1.3c-10.6-15.5-21.6-32.6-29.4-45l-0.2,15.9l0.8,28.9h-22.1l1.1-26.8l-1.1-63.5h22.4L935.5,978.5z"/>
</svg>
