<?xml version="1.0" encoding="utf-8"?>
<!-- Generator: Adobe Illustrator 24.3.0, SVG Export Plug-In . SVG Version: 6.00 Build 0)  -->
<svg version="1.1" id="Layer_1" xmlns="http://www.w3.org/2000/svg" xmlns:xlink="http://www.w3.org/1999/xlink" x="0px" y="0px"
	 viewBox="0 0 400 100" style="enable-background:new 0 0 400 100;" xml:space="preserve">
<g id="Shape_2">
	<g>
		<path d="M166.11,59.08V14.16h18.18c2.01-2.01,3.14-3.14,5.15-5.15v-3.9h-55.7v3.9c2.01,2.01,3.14,3.14,5.15,5.15h18.18v50.06h3.9
			C162.97,62.22,164.1,61.09,166.11,59.08z M64.33,52.69V30.15H17.68v-9.74l6.24-6.24h35.27c2.01-2.01,3.14-3.14,5.15-5.15v-3.9
			H20.17L8.63,16.66v22.53h46.65v9.75l-6.24,6.24H13.78c-2.01,2.01-3.14,3.14-5.15,5.15v3.9h44.16L64.33,52.69z M309.32,64.23
			c2.01-2.01,3.14-3.14,5.15-5.15v-3.9h-40.41l-6.24-6.24V20.41l6.24-6.24h40.41v-3.9c-2.01-2.01-3.14-3.14-5.15-5.15H270.3
			l-11.54,11.54v36.03l11.54,11.54H309.32z M314.46,39.19v-9.04H283.8v9.04H314.46z M129.21,59.08V16.66L117.67,5.12H85.05
			L73.51,16.66v47.57h3.9c2.01-2.01,3.14-3.14,5.15-5.15V39.19h37.61v25.03h3.9C126.07,62.22,127.2,61.09,129.21,59.08z
			 M120.17,30.15H82.55v-9.74l6.24-6.24h25.13l6.24,6.24V30.15z M361.7,34.67l29.55-29.55h-11.86l-23.62,23.63L332.16,5.12h-11.87
			l29.55,29.55l-29.56,29.56h11.87l23.63-23.64l23.63,23.64h11.86L361.7,34.67z M249.7,39.2V16.66L238.16,5.12h-32.62L194,16.66
			v47.57h3.9c2.01-2.01,3.14-3.14,5.15-5.15V20.41l6.24-6.24h25.13l6.24,6.24v9.74h-21.25v9.05l25.03,25.03h12.79L232.19,39.2H249.7
			z M17.39,73.35c-0.87-0.45-1.88-0.67-3-0.67c-1.14,0-2.15,0.23-3.03,0.68c-0.87,0.45-1.55,1.09-2.03,1.9
			c-0.48,0.82-0.72,1.76-0.72,2.84v7.19c0,1.08,0.24,2.03,0.72,2.86c0.48,0.83,1.16,1.48,2.03,1.93c0.87,0.45,1.88,0.68,3.03,0.68
			c1.13,0,2.13-0.23,3-0.68c0.87-0.45,1.55-1.09,2.03-1.9c0.48-0.82,0.72-1.75,0.72-2.81c0-0.15-0.08-0.23-0.25-0.23l-0.83-0.05
			c-0.17,0-0.25,0.08-0.25,0.23v0.05c0,1.26-0.4,2.28-1.21,3.05c-0.81,0.77-1.88,1.16-3.2,1.16c-1.33,0-2.4-0.39-3.22-1.16
			c-0.82-0.77-1.22-1.79-1.22-3.05v-7.31c0-1.26,0.4-2.27,1.21-3.04c0.81-0.77,1.88-1.15,3.23-1.15c1.33,0,2.4,0.38,3.2,1.15
			c0.81,0.77,1.21,1.78,1.21,3.04v0.08c0,0.17,0.08,0.25,0.25,0.25l0.83-0.05c0.07,0,0.13-0.02,0.18-0.08
			c0.05-0.05,0.08-0.12,0.08-0.2v-0.02c0-1.06-0.24-1.99-0.72-2.8C18.94,74.42,18.27,73.79,17.39,73.35z M30.38,78.03
			c-0.4-0.2-0.89-0.3-1.46-0.3c-0.76,0-1.42,0.18-1.98,0.55c-0.56,0.37-1.02,0.88-1.37,1.54c-0.02,0.05-0.04,0.07-0.06,0.06
			c-0.02-0.01-0.04-0.04-0.04-0.09v-1.71c0-0.17-0.08-0.25-0.25-0.25h-0.83c-0.17,0-0.25,0.08-0.25,0.25v12.21
			c0,0.17,0.08,0.25,0.25,0.25h0.83c0.17,0,0.25-0.08,0.25-0.25v-7.52c0-1.01,0.31-1.86,0.92-2.56c0.61-0.7,1.39-1.05,2.33-1.07
			c0.5-0.02,0.92,0.04,1.26,0.18c0.17,0.07,0.28,0.02,0.33-0.15l0.23-0.81C30.56,78.19,30.51,78.08,30.38,78.03z M42.26,77.82H41.4
			c-0.15,0-0.25,0.07-0.3,0.2l-3.48,10.69c-0.02,0.03-0.04,0.05-0.08,0.05c-0.03,0-0.06-0.02-0.08-0.05l-3.58-10.69
			c-0.05-0.13-0.15-0.2-0.3-0.2h-0.86c-0.15,0-0.23,0.06-0.23,0.18l0.03,0.1l4.31,12.36c0.03,0.03,0.03,0.08,0,0.15
			c-0.35,1.09-0.66,1.9-0.92,2.42c-0.26,0.52-0.57,0.88-0.93,1.07c-0.36,0.19-0.86,0.3-1.5,0.32h-0.1c-0.17,0-0.25,0.08-0.25,0.25
			v0.66c0,0.17,0.06,0.25,0.18,0.25h0.18c0.82,0,1.47-0.09,1.93-0.28c0.46-0.18,0.86-0.54,1.2-1.06c0.34-0.52,0.7-1.33,1.08-2.42
			l4.77-13.72C42.51,77.92,42.44,77.82,42.26,77.82z M54.89,80.98c-0.29-1.02-0.82-1.84-1.61-2.45c-0.79-0.61-1.76-0.91-2.9-0.91
			c-0.74,0-1.4,0.15-1.98,0.44c-0.58,0.29-1.05,0.72-1.4,1.27c-0.03,0.03-0.06,0.05-0.09,0.04c-0.02-0.01-0.04-0.04-0.04-0.09v-1.21
			c0-0.17-0.08-0.25-0.25-0.25h-0.83c-0.17,0-0.25,0.08-0.25,0.25v17.15c0,0.17,0.08,0.25,0.25,0.25h0.83
			c0.17,0,0.25-0.08,0.25-0.25v-6.15c0-0.05,0.01-0.08,0.04-0.09c0.03-0.01,0.05,0,0.09,0.04c0.35,0.55,0.82,0.98,1.4,1.27
			c0.58,0.29,1.24,0.44,1.98,0.44c1.18,0,2.16-0.31,2.96-0.92c0.8-0.61,1.32-1.44,1.58-2.48c0.1-0.39,0.17-0.82,0.2-1.3
			c0.03-0.48,0.05-1.11,0.05-1.88c0-0.77-0.02-1.4-0.05-1.88C55.08,81.8,55.01,81.36,54.89,80.98z M53.76,86.07
			c-0.05,0.4-0.14,0.76-0.28,1.06l-0.1,0.28c-0.2,0.64-0.58,1.16-1.13,1.55c-0.55,0.4-1.22,0.59-1.99,0.59
			c-0.79,0-1.45-0.21-1.98-0.64c-0.53-0.43-0.89-0.99-1.07-1.68c-0.12-0.34-0.2-0.71-0.25-1.11c-0.05-0.4-0.08-1.05-0.08-1.94
			c0-0.89,0.03-1.54,0.08-1.94c0.05-0.4,0.13-0.76,0.25-1.06c0.19-0.69,0.54-1.26,1.07-1.7c0.53-0.45,1.19-0.67,1.98-0.67
			c0.82,0,1.53,0.22,2.12,0.66c0.59,0.44,0.97,1.01,1.13,1.71c0.12,0.34,0.2,0.7,0.25,1.1c0.05,0.4,0.08,1.03,0.08,1.9
			C53.83,85.04,53.81,85.67,53.76,86.07z M64.2,77.82h-2.95c-0.07,0-0.1-0.03-0.1-0.1v-2.88c0-0.17-0.08-0.25-0.25-0.25h-0.81
			c-0.17,0-0.25,0.08-0.25,0.25v2.88c0,0.07-0.03,0.1-0.1,0.1h-1.51c-0.17,0-0.25,0.08-0.25,0.25v0.63c0,0.17,0.08,0.25,0.25,0.25
			h1.51c0.07,0,0.1,0.03,0.1,0.1v8.32c0.02,1.21,0.32,2.04,0.92,2.5c0.6,0.45,1.48,0.68,2.66,0.68l0.76-0.03
			c0.17,0,0.25-0.08,0.25-0.25V89.6c0-0.17-0.08-0.25-0.25-0.25h-0.58c-0.86,0-1.48-0.17-1.87-0.52c-0.39-0.34-0.58-0.95-0.58-1.8
			v-7.97c0-0.07,0.03-0.1,0.1-0.1h2.95c0.17,0,0.25-0.08,0.25-0.25v-0.63C64.45,77.91,64.36,77.82,64.2,77.82z M77.13,81.03
			c-0.29-1.03-0.85-1.85-1.7-2.47c-0.85-0.62-1.86-0.93-3.04-0.93c-1.21,0-2.23,0.31-3.06,0.92c-0.83,0.61-1.4,1.44-1.7,2.48
			c-0.19,0.66-0.28,1.7-0.28,3.13c0,1.43,0.09,2.48,0.28,3.15c0.3,1.04,0.87,1.88,1.72,2.5c0.84,0.62,1.85,0.93,3.03,0.93
			c1.19,0,2.21-0.31,3.06-0.93c0.85-0.62,1.42-1.45,1.7-2.5c0.1-0.39,0.17-0.82,0.2-1.29c0.03-0.47,0.05-1.09,0.05-1.87
			c0-0.74-0.02-1.35-0.05-1.83C77.3,81.85,77.23,81.41,77.13,81.03z M75.87,86.85c-0.19,0.81-0.59,1.46-1.22,1.95
			c-0.63,0.5-1.39,0.74-2.28,0.74c-0.91,0-1.67-0.24-2.29-0.73c-0.62-0.49-1.03-1.14-1.21-1.97c-0.12-0.52-0.18-1.41-0.18-2.67
			c0-1.26,0.06-2.15,0.18-2.67c0.19-0.82,0.59-1.48,1.21-1.97c0.62-0.49,1.39-0.73,2.29-0.73c0.91,0,1.68,0.24,2.31,0.73
			c0.63,0.49,1.04,1.14,1.22,1.97c0.1,0.44,0.15,1.33,0.15,2.67C76.05,85.51,75.99,86.4,75.87,86.85z M89.07,78.53
			c-0.87-0.61-1.9-0.91-3.09-0.91c-1.19,0-2.21,0.31-3.05,0.93c-0.84,0.62-1.4,1.45-1.66,2.47c-0.22,0.84-0.33,1.88-0.33,3.13
			c0,1.29,0.11,2.35,0.33,3.15c0.29,1.04,0.84,1.88,1.68,2.5c0.83,0.62,1.85,0.93,3.04,0.93c1.19,0,2.22-0.3,3.09-0.89
			c0.87-0.6,1.42-1.37,1.65-2.31l0.1-0.45c0.02-0.15-0.06-0.24-0.23-0.28l-0.78-0.13c-0.17-0.03-0.27,0.04-0.3,0.23l-0.03,0.13
			c-0.13,0.72-0.53,1.32-1.17,1.8c-0.65,0.48-1.42,0.72-2.33,0.72c-0.92,0-1.69-0.24-2.31-0.73c-0.61-0.49-1-1.14-1.17-1.97
			c-0.15-0.6-0.23-1.5-0.23-2.67c0-1.16,0.08-2.06,0.23-2.7c0.17-0.81,0.56-1.45,1.17-1.94c0.61-0.49,1.38-0.73,2.31-0.73
			c0.91,0,1.68,0.24,2.32,0.72c0.64,0.48,1.03,1.07,1.19,1.78l0.08,0.35c0.03,0.15,0.11,0.23,0.23,0.23h0.05l0.81-0.1
			c0.15-0.03,0.23-0.11,0.23-0.23v-0.05c-0.03-0.24-0.08-0.47-0.15-0.71C90.49,79.89,89.94,79.14,89.07,78.53z M103.24,77.82h-0.81
			c-0.17,0-0.25,0.08-0.25,0.25v8.12c0,0.99-0.31,1.79-0.93,2.41c-0.62,0.61-1.45,0.92-2.47,0.92c-0.99,0-1.79-0.3-2.38-0.91
			c-0.6-0.61-0.89-1.41-0.89-2.42v-8.12c0-0.17-0.08-0.25-0.25-0.25h-0.81c-0.17,0-0.25,0.08-0.25,0.25v8.47
			c0,1.29,0.41,2.31,1.24,3.05c0.82,0.74,1.86,1.11,3.1,1.11c0.81,0,1.51-0.14,2.11-0.43c0.6-0.29,1.07-0.71,1.42-1.26
			c0.02-0.05,0.04-0.07,0.08-0.06c0.03,0.01,0.05,0.04,0.05,0.09v1.24c0,0.17,0.08,0.25,0.25,0.25h0.81c0.17,0,0.25-0.08,0.25-0.25
			V78.08C103.49,77.91,103.4,77.82,103.24,77.82z M114.13,78.03c-0.4-0.2-0.89-0.3-1.46-0.3c-0.76,0-1.42,0.18-1.98,0.55
			c-0.56,0.37-1.02,0.88-1.37,1.54c-0.02,0.05-0.04,0.07-0.06,0.06c-0.02-0.01-0.04-0.04-0.04-0.09v-1.71
			c0-0.17-0.08-0.25-0.25-0.25h-0.83c-0.17,0-0.25,0.08-0.25,0.25v12.21c0,0.17,0.08,0.25,0.25,0.25h0.83
			c0.17,0,0.25-0.08,0.25-0.25v-7.52c0-1.01,0.31-1.86,0.92-2.56c0.61-0.7,1.39-1.05,2.33-1.07c0.5-0.02,0.92,0.04,1.26,0.18
			c0.17,0.07,0.28,0.02,0.33-0.15l0.23-0.81C114.31,78.19,114.26,78.08,114.13,78.03z M123.18,78.03c-0.4-0.2-0.89-0.3-1.46-0.3
			c-0.76,0-1.42,0.18-1.98,0.55c-0.56,0.37-1.02,0.88-1.37,1.54c-0.02,0.05-0.04,0.07-0.06,0.06c-0.02-0.01-0.04-0.04-0.04-0.09
			v-1.71c0-0.17-0.08-0.25-0.25-0.25h-0.83c-0.17,0-0.25,0.08-0.25,0.25v12.21c0,0.17,0.08,0.25,0.25,0.25h0.83
			c0.17,0,0.25-0.08,0.25-0.25v-7.52c0-1.01,0.31-1.86,0.92-2.56c0.61-0.7,1.39-1.05,2.33-1.07c0.5-0.02,0.92,0.04,1.26,0.18
			c0.17,0.07,0.28,0.02,0.33-0.15l0.23-0.81C123.37,78.19,123.32,78.08,123.18,78.03z M135.26,81.66c-0.2-1.26-0.71-2.25-1.54-2.96
			c-0.82-0.71-1.93-1.07-3.3-1.07c-1.21,0-2.23,0.32-3.06,0.96c-0.83,0.64-1.38,1.49-1.65,2.55c-0.08,0.35-0.14,0.74-0.16,1.16
			c-0.02,0.42-0.04,1.04-0.04,1.87c0,0.79,0.03,1.45,0.08,1.97c0.05,0.52,0.14,0.99,0.28,1.41c0.3,0.99,0.87,1.77,1.69,2.35
			c0.82,0.57,1.82,0.86,3,0.86c1.08,0,2.01-0.24,2.81-0.73c0.8-0.49,1.38-1.14,1.75-1.97c0.07-0.13,0.03-0.24-0.13-0.33l-0.66-0.33
			c-0.13-0.07-0.24-0.03-0.33,0.13c-0.32,0.64-0.76,1.14-1.32,1.5c-0.56,0.36-1.24,0.54-2.03,0.54c-0.99,0-1.81-0.24-2.46-0.72
			c-0.65-0.48-1.06-1.13-1.25-1.95c-0.08-0.35-0.13-1.07-0.13-2.14c0-0.07,0.03-0.1,0.1-0.1h8.22c0.17,0,0.25-0.08,0.25-0.25
			c0-0.64-0.01-1.17-0.03-1.6C135.35,82.35,135.31,81.98,135.26,81.66z M133.95,83.5h-7.04c-0.07,0-0.1-0.03-0.1-0.1
			c0.03-0.99,0.09-1.65,0.18-1.97c0.17-0.79,0.55-1.42,1.16-1.9c0.61-0.48,1.36-0.72,2.27-0.72c0.91,0,1.67,0.25,2.29,0.74
			c0.62,0.5,1.03,1.15,1.21,1.95c0.08,0.42,0.13,1.05,0.13,1.89C134.05,83.47,134.02,83.5,133.95,83.5z M144.27,77.65
			c-0.79,0-1.49,0.15-2.09,0.44c-0.61,0.29-1.09,0.72-1.46,1.27c-0.02,0.03-0.04,0.05-0.06,0.04c-0.02-0.01-0.04-0.04-0.04-0.09
			v-1.24c0-0.17-0.08-0.25-0.25-0.25h-0.83c-0.17,0-0.25,0.08-0.25,0.25v12.21c0,0.17,0.08,0.25,0.25,0.25h0.83
			c0.17,0,0.25-0.08,0.25-0.25v-8.12c0-0.99,0.31-1.79,0.93-2.41c0.62-0.61,1.44-0.92,2.45-0.92c0.97,0,1.77,0.32,2.37,0.95
			c0.61,0.63,0.91,1.44,0.91,2.43v8.07c0,0.17,0.08,0.25,0.25,0.25h0.83c0.17,0,0.25-0.08,0.25-0.25v-8.32c0-1.29-0.4-2.34-1.2-3.13
			C146.61,78.04,145.56,77.65,144.27,77.65z M160.32,78.53c-0.87-0.61-1.9-0.91-3.09-0.91c-1.19,0-2.21,0.31-3.05,0.93
			c-0.84,0.62-1.4,1.45-1.66,2.47c-0.22,0.84-0.33,1.88-0.33,3.13c0,1.29,0.11,2.35,0.33,3.15c0.29,1.04,0.84,1.88,1.68,2.5
			c0.83,0.62,1.85,0.93,3.04,0.93c1.19,0,2.22-0.3,3.09-0.89c0.87-0.6,1.42-1.37,1.65-2.31l0.1-0.45c0.02-0.15-0.06-0.24-0.23-0.28
			l-0.78-0.13c-0.17-0.03-0.27,0.04-0.3,0.23l-0.03,0.13c-0.13,0.72-0.53,1.32-1.17,1.8c-0.65,0.48-1.42,0.72-2.33,0.72
			c-0.92,0-1.69-0.24-2.31-0.73c-0.61-0.49-1-1.14-1.17-1.97c-0.15-0.6-0.23-1.5-0.23-2.67c0-1.16,0.08-2.06,0.23-2.7
			c0.17-0.81,0.56-1.45,1.17-1.94c0.61-0.49,1.38-0.73,2.31-0.73c0.91,0,1.68,0.24,2.32,0.72c0.64,0.48,1.03,1.07,1.18,1.78
			l0.08,0.35c0.03,0.15,0.11,0.23,0.23,0.23h0.05l0.81-0.1c0.15-0.03,0.23-0.11,0.23-0.23v-0.05c-0.03-0.24-0.08-0.47-0.15-0.71
			C161.73,79.89,161.18,79.14,160.32,78.53z M173.8,77.82h-0.86c-0.15,0-0.25,0.07-0.3,0.2l-3.48,10.69
			c-0.02,0.03-0.04,0.05-0.08,0.05s-0.06-0.02-0.08-0.05l-3.58-10.69c-0.05-0.13-0.15-0.2-0.3-0.2h-0.86
			c-0.15,0-0.23,0.06-0.23,0.18l0.03,0.1l4.31,12.36c0.03,0.03,0.03,0.08,0,0.15c-0.35,1.09-0.66,1.9-0.92,2.42
			c-0.26,0.52-0.57,0.88-0.93,1.07c-0.36,0.19-0.86,0.3-1.5,0.32h-0.1c-0.17,0-0.25,0.08-0.25,0.25v0.66c0,0.17,0.06,0.25,0.18,0.25
			h0.18c0.82,0,1.47-0.09,1.93-0.28c0.46-0.18,0.86-0.54,1.2-1.06c0.34-0.52,0.7-1.33,1.08-2.42L174,78.1
			C174.05,77.92,173.98,77.82,173.8,77.82z M193.29,72.88h-10.74c-0.17,0-0.25,0.08-0.25,0.25v17.15c0,0.17,0.08,0.25,0.25,0.25
			h10.74c0.17,0,0.25-0.08,0.25-0.25V89.6c0-0.17-0.08-0.25-0.25-0.25h-9.56c-0.07,0-0.1-0.03-0.1-0.1v-6.88
			c0-0.07,0.03-0.1,0.1-0.1h6.78c0.17,0,0.25-0.08,0.25-0.25v-0.68c0-0.17-0.08-0.25-0.25-0.25h-6.78c-0.07,0-0.1-0.03-0.1-0.1
			v-6.81c0-0.07,0.03-0.1,0.1-0.1h9.56c0.17,0,0.25-0.08,0.25-0.25v-0.68C193.54,72.97,193.46,72.88,193.29,72.88z M205.95,78.13
			c0.07-0.07,0.08-0.13,0.05-0.2c-0.03-0.07-0.1-0.1-0.2-0.1h-0.96c-0.13,0-0.24,0.05-0.3,0.15l-3.53,5.09
			c-0.02,0.02-0.04,0.03-0.08,0.03s-0.06-0.01-0.08-0.03l-3.56-5.09c-0.07-0.1-0.17-0.15-0.3-0.15h-0.88
			c-0.07,0-0.12,0.02-0.15,0.05c-0.03,0.03-0.05,0.07-0.05,0.1c0,0.07,0.02,0.12,0.05,0.15l4.21,5.98c0.03,0.05,0.03,0.1,0,0.15
			l-4.21,5.98c-0.07,0.07-0.08,0.13-0.05,0.2c0.03,0.07,0.1,0.1,0.2,0.1h0.93c0.13,0,0.24-0.05,0.3-0.15l3.56-5.07
			c0.02-0.03,0.04-0.05,0.08-0.05c0.03,0,0.06,0.02,0.08,0.05l3.53,5.07c0.07,0.1,0.17,0.15,0.3,0.15h0.91
			c0.07,0,0.12-0.02,0.15-0.05c0.03-0.03,0.05-0.07,0.05-0.1c0-0.07-0.02-0.12-0.05-0.15l-4.21-5.98c-0.02-0.05-0.02-0.1,0-0.15
			L205.95,78.13z M216.28,78.53c-0.87-0.61-1.9-0.91-3.09-0.91c-1.19,0-2.21,0.31-3.05,0.93c-0.84,0.62-1.4,1.45-1.66,2.47
			c-0.22,0.84-0.33,1.88-0.33,3.13c0,1.29,0.11,2.35,0.33,3.15c0.29,1.04,0.84,1.88,1.68,2.5c0.83,0.62,1.85,0.93,3.04,0.93
			c1.19,0,2.22-0.3,3.09-0.89c0.87-0.6,1.42-1.37,1.65-2.31l0.1-0.45c0.02-0.15-0.06-0.24-0.23-0.28l-0.78-0.13
			c-0.17-0.03-0.27,0.04-0.3,0.23l-0.03,0.13c-0.13,0.72-0.53,1.32-1.17,1.8c-0.65,0.48-1.42,0.72-2.33,0.72
			c-0.92,0-1.69-0.24-2.31-0.73c-0.61-0.49-1-1.14-1.17-1.97c-0.15-0.6-0.23-1.5-0.23-2.67c0-1.16,0.08-2.06,0.23-2.7
			c0.17-0.81,0.56-1.45,1.17-1.94c0.61-0.49,1.38-0.73,2.31-0.73c0.91,0,1.68,0.24,2.32,0.72c0.64,0.48,1.03,1.07,1.19,1.78
			l0.08,0.35c0.03,0.15,0.11,0.23,0.23,0.23h0.05l0.81-0.1c0.15-0.03,0.23-0.11,0.23-0.23v-0.05c-0.03-0.24-0.08-0.47-0.15-0.71
			C217.69,79.89,217.14,79.14,216.28,78.53z M226.58,77.65c-0.79,0-1.49,0.15-2.09,0.44c-0.61,0.29-1.09,0.72-1.46,1.27
			c-0.02,0.03-0.04,0.05-0.06,0.04c-0.02-0.01-0.04-0.04-0.04-0.09v-6.18c0-0.17-0.08-0.25-0.25-0.25h-0.83
			c-0.17,0-0.25,0.08-0.25,0.25v17.15c0,0.17,0.08,0.25,0.25,0.25h0.83c0.17,0,0.25-0.08,0.25-0.25v-8.12
			c0-0.99,0.31-1.79,0.93-2.41c0.62-0.61,1.44-0.92,2.45-0.92c0.97,0,1.77,0.32,2.37,0.95c0.61,0.63,0.91,1.44,0.91,2.43v8.07
			c0,0.17,0.08,0.25,0.25,0.25h0.83c0.17,0,0.25-0.08,0.25-0.25v-8.32c0-1.29-0.4-2.34-1.2-3.13
			C228.92,78.04,227.87,77.65,226.58,77.65z M239.34,77.62c-1.24,0-2.28,0.28-3.11,0.83c-0.83,0.55-1.32,1.29-1.48,2.19
			c-0.03,0.1,0.04,0.17,0.23,0.2l0.88,0.13c0.15,0.02,0.25-0.06,0.3-0.23c0.13-0.59,0.48-1.06,1.03-1.41
			c0.55-0.35,1.26-0.53,2.12-0.53c1.09,0,1.9,0.28,2.43,0.83c0.53,0.55,0.79,1.3,0.79,2.24v1.13c0,0.07-0.03,0.1-0.1,0.1h-3.03
			c-1.61,0-2.88,0.36-3.81,1.08c-0.92,0.72-1.39,1.71-1.39,2.95c0,1.21,0.4,2.11,1.21,2.7c0.81,0.59,1.79,0.88,2.95,0.88
			c0.86,0,1.63-0.14,2.33-0.43c0.7-0.29,1.27-0.71,1.7-1.26c0.03-0.03,0.06-0.04,0.09-0.03c0.03,0.02,0.04,0.04,0.04,0.08v1.19
			c0,0.17,0.08,0.25,0.25,0.25h0.83c0.17,0,0.25-0.08,0.25-0.25v-8.42c0-1.29-0.39-2.32-1.16-3.09
			C241.94,78.01,240.82,77.62,239.34,77.62z M242.54,86.63c0,0.92-0.39,1.65-1.17,2.17c-0.78,0.52-1.7,0.78-2.76,0.78
			c-0.89,0-1.62-0.21-2.19-0.63c-0.57-0.42-0.86-1.04-0.86-1.87c0-0.89,0.37-1.59,1.1-2.09c0.73-0.5,1.69-0.76,2.89-0.76h2.9
			c0.07,0,0.1,0.03,0.1,0.1V86.63z M252.88,77.65c-0.79,0-1.49,0.15-2.09,0.44c-0.61,0.29-1.09,0.72-1.46,1.27
			c-0.02,0.03-0.04,0.05-0.06,0.04c-0.02-0.01-0.04-0.04-0.04-0.09v-1.24c0-0.17-0.08-0.25-0.25-0.25h-0.83
			c-0.17,0-0.25,0.08-0.25,0.25v12.21c0,0.17,0.08,0.25,0.25,0.25h0.83c0.17,0,0.25-0.08,0.25-0.25v-8.12
			c0-0.99,0.31-1.79,0.93-2.41c0.62-0.61,1.44-0.92,2.45-0.92c0.97,0,1.77,0.32,2.37,0.95c0.61,0.63,0.91,1.44,0.91,2.43v8.07
			c0,0.17,0.08,0.25,0.25,0.25h0.83c0.17,0,0.25-0.08,0.25-0.25v-8.32c0-1.29-0.4-2.34-1.2-3.13
			C255.22,78.04,254.18,77.65,252.88,77.65z M270.38,77.82h-0.83c-0.17,0-0.25,0.08-0.25,0.25v1.21c0,0.03-0.02,0.06-0.05,0.08
			c-0.03,0.02-0.06,0.01-0.08-0.03c-0.79-1.14-1.96-1.71-3.51-1.71c-1.11,0-2.06,0.31-2.85,0.92c-0.79,0.61-1.32,1.42-1.59,2.41
			c-0.2,0.69-0.3,1.77-0.3,3.25c0,1.38,0.09,2.41,0.28,3.1c0.27,1.04,0.82,1.86,1.64,2.46c0.82,0.6,1.78,0.9,2.88,0.9
			c1.55,0,2.7-0.58,3.45-1.74c0.03-0.03,0.06-0.05,0.09-0.04c0.03,0.01,0.04,0.04,0.04,0.09v1.26c0,1.45-0.42,2.5-1.25,3.16
			c-0.83,0.66-2.15,0.96-3.95,0.9c-0.17,0-0.25,0.08-0.25,0.25l-0.03,0.73c0,0.17,0.08,0.26,0.25,0.28c2.08,0.08,3.7-0.3,4.84-1.16
			c1.14-0.86,1.71-2.24,1.71-4.14V78.08C270.64,77.91,270.55,77.82,270.38,77.82z M269.27,85.9c-0.02,0.37-0.05,0.68-0.1,0.93
			c-0.13,0.77-0.48,1.41-1.05,1.92c-0.56,0.5-1.3,0.76-2.21,0.76c-0.87,0-1.62-0.25-2.23-0.76c-0.61-0.5-1.01-1.14-1.2-1.92
			c-0.15-0.54-0.23-1.43-0.23-2.67c0-1.28,0.08-2.17,0.23-2.67c0.22-0.77,0.63-1.41,1.22-1.92c0.6-0.5,1.33-0.76,2.21-0.76
			c0.87,0,1.6,0.25,2.18,0.76c0.58,0.5,0.94,1.14,1.07,1.92c0.05,0.29,0.08,0.61,0.1,0.98c0.02,0.37,0.03,0.94,0.03,1.71
			C269.3,84.95,269.29,85.53,269.27,85.9z M284.15,81.66c-0.2-1.26-0.71-2.25-1.54-2.96c-0.82-0.71-1.93-1.07-3.3-1.07
			c-1.21,0-2.23,0.32-3.06,0.96c-0.83,0.64-1.38,1.49-1.65,2.55c-0.08,0.35-0.14,0.74-0.16,1.16c-0.02,0.42-0.04,1.04-0.04,1.87
			c0,0.79,0.03,1.45,0.08,1.97c0.05,0.52,0.14,0.99,0.28,1.41c0.3,0.99,0.87,1.77,1.69,2.35c0.82,0.57,1.82,0.86,3,0.86
			c1.08,0,2.01-0.24,2.81-0.73c0.8-0.49,1.38-1.14,1.75-1.97c0.07-0.13,0.03-0.24-0.13-0.33l-0.66-0.33
			c-0.13-0.07-0.24-0.03-0.33,0.13c-0.32,0.64-0.76,1.14-1.32,1.5c-0.56,0.36-1.24,0.54-2.03,0.54c-0.99,0-1.81-0.24-2.46-0.72
			c-0.65-0.48-1.06-1.13-1.25-1.95c-0.08-0.35-0.13-1.07-0.13-2.14c0-0.07,0.03-0.1,0.1-0.1h8.22c0.17,0,0.25-0.08,0.25-0.25
			c0-0.64-0.01-1.17-0.03-1.6C284.24,82.35,284.2,81.98,284.15,81.66z M282.84,83.5h-7.04c-0.07,0-0.1-0.03-0.1-0.1
			c0.03-0.99,0.09-1.65,0.18-1.97c0.17-0.79,0.55-1.42,1.16-1.9c0.61-0.48,1.36-0.72,2.27-0.72c0.91,0,1.67,0.25,2.29,0.74
			c0.62,0.5,1.03,1.15,1.21,1.95c0.08,0.42,0.13,1.05,0.13,1.89C282.94,83.47,282.91,83.5,282.84,83.5z M301.78,73.35
			c-0.88-0.45-1.87-0.67-3-0.67c-1.14,0-2.15,0.23-3.03,0.68c-0.87,0.45-1.55,1.09-2.03,1.9c-0.48,0.82-0.72,1.76-0.72,2.84v7.19
			c0,1.08,0.24,2.03,0.72,2.86c0.48,0.83,1.16,1.48,2.03,1.93c0.87,0.45,1.88,0.68,3.03,0.68c1.12,0,2.12-0.23,3-0.68
			c0.88-0.45,1.55-1.09,2.03-1.9c0.48-0.82,0.72-1.75,0.72-2.81c0-0.15-0.09-0.23-0.25-0.23l-0.83-0.05c-0.17,0-0.25,0.08-0.25,0.23
			v0.05c0,1.26-0.4,2.28-1.21,3.05c-0.81,0.77-1.87,1.16-3.2,1.16c-1.33,0-2.4-0.39-3.22-1.16c-0.82-0.77-1.22-1.79-1.22-3.05v-7.31
			c0-1.26,0.4-2.27,1.21-3.04c0.81-0.77,1.88-1.15,3.23-1.15c1.33,0,2.39,0.38,3.2,1.15c0.81,0.77,1.21,1.78,1.21,3.04v0.08
			c0,0.17,0.08,0.25,0.25,0.25l0.83-0.05c0.07,0,0.13-0.02,0.18-0.08c0.05-0.05,0.08-0.12,0.08-0.2v-0.02c0-1.06-0.24-1.99-0.72-2.8
			C303.33,74.42,302.65,73.79,301.78,73.35z M317.87,81.03c-0.29-1.03-0.85-1.85-1.7-2.47c-0.85-0.62-1.86-0.93-3.04-0.93
			c-1.21,0-2.23,0.31-3.06,0.92c-0.83,0.61-1.4,1.44-1.7,2.48c-0.19,0.66-0.28,1.7-0.28,3.13c0,1.43,0.09,2.48,0.28,3.15
			c0.3,1.04,0.87,1.88,1.71,2.5c0.84,0.62,1.85,0.93,3.03,0.93c1.19,0,2.21-0.31,3.06-0.93c0.85-0.62,1.42-1.45,1.7-2.5
			c0.1-0.39,0.17-0.82,0.2-1.29c0.03-0.47,0.05-1.09,0.05-1.87c0-0.74-0.02-1.35-0.05-1.83C318.04,81.85,317.97,81.41,317.87,81.03z
			 M316.61,86.85c-0.18,0.81-0.59,1.46-1.22,1.95c-0.63,0.5-1.39,0.74-2.28,0.74c-0.91,0-1.67-0.24-2.29-0.73
			c-0.62-0.49-1.03-1.14-1.21-1.97c-0.12-0.52-0.18-1.41-0.18-2.67c0-1.26,0.06-2.15,0.18-2.67c0.18-0.82,0.59-1.48,1.21-1.97
			c0.62-0.49,1.39-0.73,2.29-0.73c0.91,0,1.68,0.24,2.31,0.73c0.63,0.49,1.04,1.14,1.22,1.97c0.1,0.44,0.15,1.33,0.15,2.67
			C316.79,85.51,316.73,86.4,316.61,86.85z M334.72,77.65c-0.89,0-1.67,0.19-2.35,0.55c-0.67,0.37-1.19,0.92-1.54,1.64
			c-0.05,0.05-0.09,0.04-0.13-0.02c-0.32-0.69-0.79-1.22-1.42-1.6c-0.63-0.38-1.38-0.57-2.26-0.57c-0.76,0-1.43,0.13-2.03,0.4
			c-0.6,0.27-1.07,0.67-1.43,1.21c-0.02,0.03-0.04,0.04-0.08,0.03c-0.03-0.02-0.05-0.04-0.05-0.08v-1.13c0-0.17-0.08-0.25-0.25-0.25
			h-0.83c-0.17,0-0.25,0.08-0.25,0.25v12.21c0,0.17,0.08,0.25,0.25,0.25h0.83c0.17,0,0.25-0.08,0.25-0.25v-8.27
			c0-0.98,0.29-1.75,0.87-2.32c0.58-0.57,1.37-0.86,2.36-0.86c0.92,0,1.67,0.29,2.24,0.87c0.57,0.58,0.86,1.37,0.86,2.36v8.22
			c0,0.17,0.08,0.25,0.25,0.25h0.81c0.17,0,0.25-0.08,0.25-0.25v-8.27c0-0.98,0.3-1.75,0.9-2.32c0.6-0.57,1.38-0.86,2.36-0.86
			c0.92,0,1.68,0.29,2.26,0.87c0.58,0.58,0.87,1.37,0.87,2.36v8.22c0,0.17,0.08,0.25,0.25,0.25h0.81c0.17,0,0.25-0.08,0.25-0.25
			v-8.47c0-1.29-0.37-2.31-1.11-3.05C336.92,78.02,335.94,77.65,334.72,77.65z M352.52,80.98c-0.29-1.02-0.82-1.84-1.61-2.45
			c-0.79-0.61-1.76-0.91-2.9-0.91c-0.74,0-1.4,0.15-1.98,0.44c-0.58,0.29-1.05,0.72-1.4,1.27c-0.03,0.03-0.06,0.05-0.09,0.04
			c-0.03-0.01-0.04-0.04-0.04-0.09v-1.21c0-0.17-0.08-0.25-0.25-0.25h-0.83c-0.17,0-0.25,0.08-0.25,0.25v17.15
			c0,0.17,0.08,0.25,0.25,0.25h0.83c0.17,0,0.25-0.08,0.25-0.25v-6.15c0-0.05,0.01-0.08,0.04-0.09c0.03-0.01,0.05,0,0.09,0.04
			c0.35,0.55,0.82,0.98,1.4,1.27c0.58,0.29,1.24,0.44,1.98,0.44c1.18,0,2.17-0.31,2.96-0.92c0.8-0.61,1.32-1.44,1.58-2.48
			c0.1-0.39,0.17-0.82,0.2-1.3c0.03-0.48,0.05-1.11,0.05-1.88c0-0.77-0.02-1.4-0.05-1.88C352.71,81.8,352.64,81.36,352.52,80.98z
			 M351.39,86.07c-0.05,0.4-0.14,0.76-0.28,1.06l-0.1,0.28c-0.2,0.64-0.58,1.16-1.14,1.55c-0.56,0.4-1.22,0.59-1.99,0.59
			c-0.79,0-1.45-0.21-1.98-0.64c-0.53-0.43-0.89-0.99-1.07-1.68c-0.12-0.34-0.2-0.71-0.25-1.11c-0.05-0.4-0.08-1.05-0.08-1.94
			c0-0.89,0.03-1.54,0.08-1.94c0.05-0.4,0.13-0.76,0.25-1.06c0.18-0.69,0.54-1.26,1.07-1.7c0.53-0.45,1.19-0.67,1.98-0.67
			c0.82,0,1.53,0.22,2.12,0.66c0.59,0.44,0.97,1.01,1.13,1.71c0.12,0.34,0.2,0.7,0.25,1.1c0.05,0.4,0.08,1.03,0.08,1.9
			C351.46,85.04,351.44,85.67,351.39,86.07z M360.99,77.62c-1.24,0-2.28,0.28-3.11,0.83c-0.83,0.55-1.32,1.29-1.48,2.19
			c-0.03,0.1,0.04,0.17,0.23,0.2l0.88,0.13c0.15,0.02,0.25-0.06,0.3-0.23c0.13-0.59,0.48-1.06,1.03-1.41
			c0.55-0.35,1.26-0.53,2.12-0.53c1.09,0,1.9,0.28,2.43,0.83c0.53,0.55,0.79,1.3,0.79,2.24v1.13c0,0.07-0.03,0.1-0.1,0.1h-3.03
			c-1.61,0-2.88,0.36-3.81,1.08c-0.92,0.72-1.39,1.71-1.39,2.95c0,1.21,0.4,2.11,1.21,2.7c0.81,0.59,1.79,0.88,2.95,0.88
			c0.86,0,1.63-0.14,2.33-0.43c0.7-0.29,1.26-0.71,1.7-1.26c0.03-0.03,0.06-0.04,0.09-0.03c0.03,0.02,0.04,0.04,0.04,0.08v1.19
			c0,0.17,0.08,0.25,0.25,0.25h0.83c0.17,0,0.25-0.08,0.25-0.25v-8.42c0-1.29-0.39-2.32-1.16-3.09
			C363.6,78.01,362.47,77.62,360.99,77.62z M364.2,86.63c0,0.92-0.39,1.65-1.17,2.17c-0.78,0.52-1.7,0.78-2.76,0.78
			c-0.89,0-1.62-0.21-2.19-0.63c-0.57-0.42-0.86-1.04-0.86-1.87c0-0.89,0.37-1.59,1.1-2.09c0.73-0.5,1.69-0.76,2.89-0.76h2.9
			c0.07,0,0.1,0.03,0.1,0.1V86.63z M374.54,77.65c-0.79,0-1.49,0.15-2.09,0.44c-0.6,0.29-1.09,0.72-1.46,1.27
			c-0.02,0.03-0.04,0.05-0.06,0.04c-0.03-0.01-0.04-0.04-0.04-0.09v-1.24c0-0.17-0.08-0.25-0.25-0.25h-0.83
			c-0.17,0-0.25,0.08-0.25,0.25v12.21c0,0.17,0.08,0.25,0.25,0.25h0.83c0.17,0,0.25-0.08,0.25-0.25v-8.12
			c0-0.99,0.31-1.79,0.93-2.41c0.62-0.61,1.44-0.92,2.45-0.92c0.97,0,1.76,0.32,2.37,0.95c0.61,0.63,0.91,1.44,0.91,2.43v8.07
			c0,0.17,0.08,0.25,0.25,0.25h0.83c0.17,0,0.25-0.08,0.25-0.25v-8.32c0-1.29-0.4-2.34-1.2-3.13
			C376.88,78.04,375.83,77.65,374.54,77.65z M391.18,77.82h-0.86c-0.15,0-0.25,0.07-0.3,0.2l-3.48,10.69
			c-0.02,0.03-0.04,0.05-0.08,0.05c-0.03,0-0.06-0.02-0.08-0.05l-3.58-10.69c-0.05-0.13-0.15-0.2-0.3-0.2h-0.86
			c-0.15,0-0.23,0.06-0.23,0.18l0.03,0.1l4.31,12.36c0.03,0.03,0.03,0.08,0,0.15c-0.35,1.09-0.66,1.9-0.92,2.42
			c-0.26,0.52-0.57,0.88-0.93,1.07c-0.36,0.19-0.86,0.3-1.5,0.32h-0.1c-0.17,0-0.25,0.08-0.25,0.25v0.66c0,0.17,0.06,0.25,0.18,0.25
			h0.18c0.82,0,1.47-0.09,1.93-0.28c0.46-0.18,0.86-0.54,1.2-1.06c0.34-0.52,0.7-1.33,1.08-2.42l4.77-13.72
			C391.43,77.92,391.36,77.82,391.18,77.82z"/>
	</g>
</g>
</svg>
